<svg width="1728" height="1088" viewBox="0 0 1728 1088" fill="none" xmlns="http://www.w3.org/2000/svg">
    <path d="M1083.19 875.267C997.599 1172.5 605.095 883.011 185 922.363L914.527 331.041C919.226 327.277 1477.41 585.362 1083.19 875.267Z"
          fill="#F48014"/>
    <path d="M926.572 744.309C777.4 909.401 656.36 843.364 0 933.414V1088H1728V541.697C1578.16 550.869 1034.2 154.982 904.046 340.585C832.964 484.165 1028.69 559.207 926.572 744.309Z"
          fill="#232220"/>
    <circle cx="1002" cy="145" r="97" fill="#F48014"/>
    <circle cx="1193.5" cy="48.5" r="48.5" fill="#F48014"/>
    <path d="M1237.5 799H1216.68C1216.17 799 1215.89 798.72 1215.84 798.16L1195.51 679.994C1195.4 679.546 1195.57 679.322 1196.02 679.322H1215.33C1215.78 679.322 1216.06 679.546 1216.17 679.994L1227.17 757.68L1238.51 679.994C1238.62 679.546 1238.96 679.322 1239.52 679.322H1255.06C1255.5 679.322 1255.78 679.546 1255.9 679.994L1267.07 757.68L1278.24 679.994C1278.35 679.546 1278.63 679.322 1279.08 679.322H1298.22C1298.78 679.322 1299.01 679.546 1298.9 679.994L1278.4 798.16C1278.35 798.384 1278.18 798.58 1277.9 798.748L1277.56 799H1256.74C1256.4 799 1256.12 798.72 1255.9 798.16L1247.08 736.432L1238.34 798.16C1238.29 798.72 1238.01 799 1237.5 799ZM1337.28 800.68C1331.17 800.68 1325.55 799.112 1320.4 795.977C1315.3 792.841 1311.19 788.67 1308.05 783.463C1304.97 778.2 1303.43 772.433 1303.43 766.162L1303.6 711.656C1303.6 705.273 1305.14 699.535 1308.22 694.439C1311.24 689.288 1315.33 685.173 1320.48 682.094C1325.63 678.958 1331.23 677.391 1337.28 677.391C1343.55 677.391 1349.18 678.93 1354.16 682.01C1359.2 685.089 1363.23 689.232 1366.25 694.439C1369.33 699.59 1370.87 705.329 1370.87 711.656L1371.04 766.162C1371.04 772.433 1369.53 778.172 1366.5 783.379C1363.42 788.642 1359.34 792.841 1354.24 795.977C1349.15 799.112 1343.49 800.68 1337.28 800.68ZM1337.28 779.936C1340.75 779.936 1343.77 778.536 1346.35 775.736C1348.92 772.881 1350.21 769.689 1350.21 766.162L1350.04 711.656C1350.04 707.849 1348.84 704.63 1346.43 701.998C1344.02 699.367 1340.97 698.051 1337.28 698.051C1333.75 698.051 1330.73 699.339 1328.21 701.914C1325.69 704.49 1324.43 707.737 1324.43 711.656V766.162C1324.43 769.913 1325.69 773.161 1328.21 775.904C1330.73 778.592 1333.75 779.936 1337.28 779.936ZM1404.21 799H1384.73C1384.28 799 1384.06 798.72 1384.06 798.16L1384.39 679.994C1384.39 679.546 1384.62 679.322 1385.06 679.322H1419.83C1426.05 679.322 1431.76 680.834 1436.97 683.857C1442.17 686.881 1446.32 690.94 1449.4 696.035C1452.53 701.13 1454.1 706.897 1454.1 713.336C1454.1 717.535 1453.46 721.342 1452.17 724.758C1450.88 728.173 1449.37 731.057 1447.63 733.408C1445.95 735.76 1444.41 737.495 1443.01 738.615C1449.23 745.502 1452.34 753.592 1452.34 762.887L1452.5 798.16C1452.5 798.72 1452.22 799 1451.66 799H1432.18C1431.73 799 1431.51 798.832 1431.51 798.496V762.887C1431.51 758.743 1430.05 755.16 1427.14 752.137C1424.23 749.113 1420.65 747.602 1416.39 747.602H1405.05L1404.88 798.16C1404.88 798.72 1404.66 799 1404.21 799ZM1419.83 699.898H1405.05V726.941H1419.83C1423.36 726.941 1426.5 725.626 1429.24 722.994C1432.04 720.363 1433.44 717.143 1433.44 713.336C1433.44 709.697 1432.1 706.561 1429.41 703.93C1426.72 701.242 1423.53 699.898 1419.83 699.898ZM1487.19 799H1467.71C1467.26 799 1467.03 798.72 1467.03 798.16L1467.37 679.994C1467.37 679.546 1467.59 679.322 1468.04 679.322H1489.04C1489.49 679.322 1489.88 679.546 1490.21 679.994L1505.92 702.67L1521.54 679.994C1521.88 679.546 1522.29 679.322 1522.8 679.322H1543.88C1544.38 679.322 1544.63 679.546 1544.63 679.994L1544.97 798.16C1544.97 798.72 1544.75 799 1544.3 799H1524.81C1524.37 799 1524.14 798.72 1524.14 798.16L1523.97 710.396L1505.92 736.6L1488.03 710.396L1487.86 798.16C1487.86 798.72 1487.64 799 1487.19 799Z"
          fill="white"/>
    <path d="M1366.11 831.512C1365.26 832.248 1364.39 832.736 1363.49 832.976C1362.6 833.216 1361.72 833.24 1360.88 833.048C1360.04 832.856 1359.29 832.48 1358.62 831.92C1357.95 831.36 1357.41 830.648 1357.01 829.784C1356.63 828.92 1356.44 827.952 1356.44 826.88C1356.44 825.808 1356.63 824.864 1357.01 824.048C1357.41 823.232 1357.95 822.568 1358.62 822.056C1359.29 821.544 1360.04 821.208 1360.88 821.048C1361.72 820.872 1362.6 820.896 1363.49 821.12C1364.4 821.344 1365.28 821.8 1366.11 822.488L1365.39 823.424C1364.52 822.784 1363.64 822.408 1362.72 822.296C1361.83 822.168 1361 822.272 1360.23 822.608C1359.48 822.944 1358.86 823.48 1358.38 824.216C1357.92 824.936 1357.68 825.824 1357.68 826.88C1357.68 828 1357.92 828.96 1358.4 829.76C1358.9 830.56 1359.54 831.144 1360.32 831.512C1361.11 831.88 1361.95 832 1362.84 831.872C1363.74 831.728 1364.59 831.28 1365.39 830.528L1366.11 831.512ZM1368.28 833V821.24H1369.53V822.488C1370.01 821.928 1370.6 821.536 1371.3 821.312C1372.02 821.088 1373.01 821.144 1374.25 821.48L1373.73 822.632C1373.13 822.408 1372.58 822.344 1372.07 822.44C1371.56 822.52 1371.11 822.712 1370.73 823.016C1370.34 823.304 1370.05 823.648 1369.84 824.048C1369.63 824.432 1369.53 824.824 1369.53 825.224V833H1368.28ZM1385.97 827.24H1376.01C1376.01 828.488 1376.29 829.496 1376.83 830.264C1377.39 831.016 1378.12 831.536 1379.01 831.824C1379.93 832.096 1380.9 832.128 1381.94 831.92C1383 831.712 1384.02 831.256 1385.01 830.552L1385.64 831.56C1384.92 832.104 1384.15 832.512 1383.33 832.784C1382.53 833.04 1381.71 833.184 1380.86 833.216C1378.89 833.296 1377.37 832.752 1376.28 831.584C1375.19 830.4 1374.65 828.768 1374.65 826.688C1374.65 824.896 1375.13 823.48 1376.11 822.44C1377.09 821.4 1378.57 820.88 1380.55 820.88C1381.78 820.88 1382.84 821.136 1383.72 821.648C1384.61 822.16 1385.26 822.92 1385.66 823.928C1385.84 824.376 1385.95 824.88 1386 825.44C1386.05 826 1386.04 826.6 1385.97 827.24ZM1380.55 822.08C1379.77 822.08 1379.03 822.208 1378.34 822.464C1377.65 822.72 1377.09 823.136 1376.66 823.712C1376.23 824.272 1376.01 825.04 1376.01 826.016H1384.77C1384.77 824.672 1384.39 823.68 1383.62 823.04C1382.85 822.4 1381.83 822.08 1380.55 822.08ZM1392.32 833.12C1391.62 833.12 1390.95 832.992 1390.33 832.736C1389.71 832.48 1389.19 832.096 1388.79 831.584C1388.41 831.056 1388.22 830.392 1388.22 829.592C1388.22 828.312 1388.57 827.336 1389.27 826.664C1389.98 825.976 1390.97 825.552 1392.25 825.392C1393.55 825.216 1395.07 825.272 1396.81 825.56V824.624C1396.81 823.936 1396.61 823.392 1396.21 822.992C1395.81 822.592 1395.3 822.328 1394.67 822.2C1394.05 822.056 1393.39 822.04 1392.71 822.152C1392.03 822.248 1391.41 822.456 1390.83 822.776C1390.26 823.096 1389.83 823.52 1389.54 824.048L1388.65 823.136C1389.08 822.544 1389.61 822.072 1390.23 821.72C1390.86 821.368 1391.51 821.128 1392.2 821C1392.91 820.872 1393.59 820.848 1394.27 820.928C1394.95 821.008 1395.57 821.176 1396.11 821.432C1396.82 821.752 1397.31 822.192 1397.58 822.752C1397.85 823.312 1398 823.96 1398.03 824.696C1398.08 825.432 1398.11 826.24 1398.11 827.12L1398.08 833H1396.83V831.872C1396.19 832.272 1395.47 832.584 1394.67 832.808C1393.89 833.016 1393.11 833.12 1392.32 833.12ZM1396.83 830.528V826.664C1395.47 826.44 1394.23 826.376 1393.09 826.472C1391.97 826.568 1391.07 826.864 1390.4 827.36C1389.75 827.856 1389.42 828.6 1389.42 829.592C1389.42 830.2 1389.59 830.68 1389.95 831.032C1390.3 831.384 1390.76 831.624 1391.34 831.752C1391.91 831.864 1392.54 831.888 1393.21 831.824C1393.88 831.744 1394.54 831.592 1395.18 831.368C1395.82 831.144 1396.37 830.864 1396.83 830.528ZM1402.1 828.008V822.176H1399.8V821H1402.1V816.2H1403.37V821H1405.65V822.176H1403.37V828.008C1403.37 829.064 1403.36 829.864 1403.35 830.408C1403.35 830.952 1403.43 831.32 1403.59 831.512C1403.75 831.704 1404.08 831.808 1404.57 831.824H1405.29V833.072H1404.64C1404 833.072 1403.51 833.008 1403.16 832.88C1402.8 832.736 1402.56 832.488 1402.41 832.136C1402.27 831.768 1402.18 831.256 1402.15 830.6C1402.12 829.928 1402.1 829.064 1402.1 828.008ZM1418.34 827.24H1408.38C1408.38 828.488 1408.65 829.496 1409.2 830.264C1409.76 831.016 1410.48 831.536 1411.38 831.824C1412.29 832.096 1413.27 832.128 1414.31 831.92C1415.36 831.712 1416.39 831.256 1417.38 830.552L1418 831.56C1417.28 832.104 1416.52 832.512 1415.7 832.784C1414.9 833.04 1414.08 833.184 1413.23 833.216C1411.26 833.296 1409.73 832.752 1408.64 831.584C1407.56 830.4 1407.01 828.768 1407.01 826.688C1407.01 824.896 1407.5 823.48 1408.48 822.44C1409.45 821.4 1410.93 820.88 1412.92 820.88C1414.15 820.88 1415.2 821.136 1416.08 821.648C1416.98 822.16 1417.63 822.92 1418.03 823.928C1418.2 824.376 1418.32 824.88 1418.36 825.44C1418.41 826 1418.4 826.6 1418.34 827.24ZM1412.92 822.08C1412.13 822.08 1411.4 822.208 1410.71 822.464C1410.02 822.72 1409.46 823.136 1409.03 823.712C1408.6 824.272 1408.38 825.04 1408.38 826.016H1417.14C1417.14 824.672 1416.76 823.68 1415.99 823.04C1415.22 822.4 1414.2 822.08 1412.92 822.08ZM1425.96 833.12C1424.25 833.12 1422.92 832.56 1421.98 831.44C1421.05 830.304 1420.59 828.808 1420.59 826.952C1420.59 825.736 1420.8 824.68 1421.23 823.784C1421.68 822.872 1422.32 822.16 1423.15 821.648C1423.99 821.136 1424.99 820.88 1426.15 820.88C1426.67 820.88 1427.18 820.912 1427.69 820.976C1428.22 821.024 1428.87 821.216 1429.66 821.552V816.2H1430.91V833H1429.66V831.776C1429.19 832.08 1428.67 832.384 1428.1 832.688C1427.54 832.976 1426.83 833.12 1425.96 833.12ZM1429.66 830.696V822.776C1428.63 822.344 1427.65 822.104 1426.71 822.056C1425.78 822.008 1424.95 822.16 1424.21 822.512C1423.49 822.848 1422.91 823.392 1422.48 824.144C1422.07 824.88 1421.86 825.816 1421.86 826.952C1421.86 828.104 1422.08 829.072 1422.53 829.856C1422.99 830.64 1423.6 831.208 1424.35 831.56C1425.12 831.896 1425.96 832 1426.87 831.872C1427.8 831.744 1428.73 831.352 1429.66 830.696ZM1452.73 826.952C1452.73 828.808 1452.26 830.304 1451.31 831.44C1450.39 832.56 1449.07 833.12 1447.35 833.12C1446.49 833.12 1445.77 832.976 1445.19 832.688C1444.63 832.384 1444.12 832.08 1443.66 831.776V833H1442.41V816.2H1443.66V821.552C1444.44 821.216 1445.09 821.024 1445.6 820.976C1446.13 820.912 1446.65 820.88 1447.16 820.88C1448.33 820.88 1449.33 821.136 1450.16 821.648C1450.99 822.16 1451.63 822.872 1452.06 823.784C1452.51 824.68 1452.73 825.736 1452.73 826.952ZM1451.46 826.952C1451.46 825.816 1451.24 824.88 1450.81 824.144C1450.39 823.392 1449.82 822.848 1449.08 822.512C1448.36 822.16 1447.53 822.008 1446.59 822.056C1445.66 822.104 1444.68 822.344 1443.66 822.776V830.696C1444.59 831.352 1445.51 831.744 1446.42 831.872C1447.35 832 1448.19 831.896 1448.94 831.56C1449.71 831.208 1450.31 830.64 1450.76 829.856C1451.23 829.072 1451.46 828.104 1451.46 826.952ZM1454.91 837.08V835.904C1455.41 835.904 1455.88 835.76 1456.33 835.472C1456.79 835.2 1457.17 834.856 1457.46 834.44C1457.76 834.04 1457.91 833.648 1457.91 833.264L1453.21 821H1454.58L1458.71 831.632L1462.62 821H1464.03L1459.5 833.024C1459.08 834.144 1458.5 835.088 1457.75 835.856C1456.99 836.64 1456.05 837.048 1454.91 837.08ZM1477.38 828.008V822.176H1475.08V821H1477.38V816.2H1478.65V821H1480.93V822.176H1478.65V828.008C1478.65 829.064 1478.65 829.864 1478.63 830.408C1478.63 830.952 1478.71 831.32 1478.87 831.512C1479.03 831.704 1479.36 831.808 1479.85 831.824H1480.57V833.072H1479.93C1479.29 833.072 1478.79 833.008 1478.44 832.88C1478.09 832.736 1477.84 832.488 1477.69 832.136C1477.55 831.768 1477.46 831.256 1477.43 830.6C1477.4 829.928 1477.38 829.064 1477.38 828.008ZM1493.62 827.24H1483.66C1483.66 828.488 1483.93 829.496 1484.48 830.264C1485.04 831.016 1485.77 831.536 1486.66 831.824C1487.57 832.096 1488.55 832.128 1489.59 831.92C1490.65 831.712 1491.67 831.256 1492.66 830.552L1493.29 831.56C1492.57 832.104 1491.8 832.512 1490.98 832.784C1490.18 833.04 1489.36 833.184 1488.51 833.216C1486.54 833.296 1485.01 832.752 1483.93 831.584C1482.84 830.4 1482.29 828.768 1482.29 826.688C1482.29 824.896 1482.78 823.48 1483.76 822.44C1484.73 821.4 1486.21 820.88 1488.2 820.88C1489.43 820.88 1490.49 821.136 1491.37 821.648C1492.26 822.16 1492.91 822.92 1493.31 823.928C1493.49 824.376 1493.6 824.88 1493.65 825.44C1493.69 826 1493.69 826.6 1493.62 827.24ZM1488.2 822.08C1487.41 822.08 1486.68 822.208 1485.99 822.464C1485.3 822.72 1484.74 823.136 1484.31 823.712C1483.88 824.272 1483.66 825.04 1483.66 826.016H1492.42C1492.42 824.672 1492.04 823.68 1491.27 823.04C1490.5 822.4 1489.48 822.08 1488.2 822.08ZM1499.97 833.12C1499.27 833.12 1498.6 832.992 1497.98 832.736C1497.35 832.48 1496.84 832.096 1496.44 831.584C1496.06 831.056 1495.87 830.392 1495.87 829.592C1495.87 828.312 1496.22 827.336 1496.92 826.664C1497.63 825.976 1498.62 825.552 1499.9 825.392C1501.19 825.216 1502.71 825.272 1504.46 825.56V824.624C1504.46 823.936 1504.26 823.392 1503.86 822.992C1503.46 822.592 1502.95 822.328 1502.32 822.2C1501.7 822.056 1501.04 822.04 1500.35 822.152C1499.68 822.248 1499.06 822.456 1498.48 822.776C1497.91 823.096 1497.47 823.52 1497.19 824.048L1496.3 823.136C1496.73 822.544 1497.26 822.072 1497.88 821.72C1498.51 821.368 1499.16 821.128 1499.85 821C1500.55 820.872 1501.24 820.848 1501.91 820.928C1502.6 821.008 1503.22 821.176 1503.76 821.432C1504.47 821.752 1504.95 822.192 1505.23 822.752C1505.5 823.312 1505.65 823.96 1505.68 824.696C1505.73 825.432 1505.75 826.24 1505.75 827.12L1505.73 833H1504.48V831.872C1503.84 832.272 1503.12 832.584 1502.32 832.808C1501.54 833.016 1500.75 833.12 1499.97 833.12ZM1504.48 830.528V826.664C1503.12 826.44 1501.87 826.376 1500.74 826.472C1499.62 826.568 1498.72 826.864 1498.05 827.36C1497.39 827.856 1497.07 828.6 1497.07 829.592C1497.07 830.2 1497.24 830.68 1497.59 831.032C1497.95 831.384 1498.41 831.624 1498.99 831.752C1499.56 831.864 1500.19 831.888 1500.86 831.824C1501.53 831.744 1502.19 831.592 1502.83 831.368C1503.47 831.144 1504.02 830.864 1504.48 830.528ZM1526.35 833H1525.12V825.8C1525.12 824.568 1524.79 823.624 1524.11 822.968C1523.46 822.312 1522.6 821.984 1521.55 821.984C1520.47 821.984 1519.6 822.312 1518.93 822.968C1518.27 823.624 1517.95 824.568 1517.95 825.8V833H1516.72V825.8C1516.72 824.504 1516.37 823.544 1515.67 822.92C1514.96 822.296 1514.05 821.984 1512.93 821.984C1512.43 821.984 1511.91 822.12 1511.35 822.392C1510.8 822.664 1510.34 823.088 1509.95 823.664C1509.57 824.224 1509.38 824.936 1509.38 825.8V833H1508.15V821H1509.38V822.44C1509.79 821.928 1510.3 821.544 1510.89 821.288C1511.5 821.016 1512.15 820.872 1512.83 820.856C1513.65 820.84 1514.47 821.008 1515.28 821.36C1516.1 821.712 1516.8 822.272 1517.39 823.04C1517.86 822.288 1518.46 821.744 1519.19 821.408C1519.93 821.056 1520.74 820.88 1521.62 820.88C1522.43 820.88 1523.2 821.064 1523.92 821.432C1524.64 821.784 1525.23 822.328 1525.67 823.064C1526.12 823.784 1526.35 824.696 1526.35 825.8V833ZM1542.63 833.192C1541.45 833.192 1540.44 832.944 1539.61 832.448C1538.77 831.936 1538.09 831.224 1537.54 830.312L1538.77 829.928C1539.2 830.536 1539.77 831.032 1540.47 831.416C1541.19 831.784 1541.91 831.968 1542.63 831.968C1543.38 831.968 1544.07 831.816 1544.69 831.512C1545.32 831.192 1545.82 830.768 1546.21 830.24C1546.59 829.696 1546.78 829.096 1546.78 828.44C1546.78 827.752 1546.59 827.144 1546.21 826.616C1545.82 826.072 1545.31 825.648 1544.67 825.344C1544.05 825.024 1543.37 824.864 1542.63 824.864H1541.24V823.76H1542.63C1543.35 823.76 1544 823.624 1544.57 823.352C1545.15 823.064 1545.6 822.68 1545.92 822.2C1546.25 821.704 1546.42 821.144 1546.42 820.52C1546.42 819.88 1546.25 819.32 1545.89 818.84C1545.54 818.36 1545.09 817.992 1544.53 817.736C1543.98 817.464 1543.4 817.328 1542.77 817.328C1541.99 817.328 1541.26 817.552 1540.59 818C1539.93 818.432 1539.49 819.04 1539.27 819.824L1538 819.44C1538.21 818.752 1538.56 818.16 1539.05 817.664C1539.55 817.168 1540.13 816.784 1540.78 816.512C1541.44 816.24 1542.1 816.104 1542.77 816.104C1543.67 816.104 1544.49 816.288 1545.22 816.656C1545.96 817.008 1546.55 817.52 1547 818.192C1547.45 818.848 1547.67 819.624 1547.67 820.52C1547.67 821.176 1547.52 821.824 1547.21 822.464C1546.91 823.088 1546.3 823.704 1545.39 824.312C1546.08 824.632 1546.61 825.024 1546.97 825.488C1547.36 825.952 1547.63 826.44 1547.79 826.952C1547.95 827.464 1548.03 827.96 1548.03 828.44C1548.03 829.352 1547.77 830.168 1547.26 830.888C1546.77 831.608 1546.11 832.176 1545.29 832.592C1544.48 832.992 1543.59 833.192 1542.63 833.192Z"
          fill="white"/>
</svg>
