<svg width="1455" height="321" viewBox="0 0 1455 321" fill="none" xmlns="http://www.w3.org/2000/svg">
<path d="M758.203 116.265L1155.19 0.964844L1454.96 141.592V321.296H653.111L758.203 116.265Z" fill="#CD272B"/>
<path d="M1230.97 279.419C1225.49 284.052 1219.31 321.296 1108.5 321.296H652.648H0L1152.88 0C1158.98 0.99709 1172.09 27.0159 1125.8 65.1276C1062.14 104.445 1085.47 102.671 938.759 149.552C921.398 155.1 900.193 159.913 907.046 188.629C916.77 208.336 975.196 186.267 1181.89 212.027C1201.11 220.121 1237.83 244.931 1230.97 279.419Z" fill="#F0623A"/>
<path d="M744.118 205.514C737.712 207.478 703.593 214.095 654.5 239.07V321.296H1240.61C1197.23 312.203 1046.78 257.257 744.118 205.514Z" fill="#A11F37"/>
<path d="M774.87 266.083C804.731 252.184 869.315 237.902 746.861 205.514C730.5 198.5 498.38 292.606 437.5 321.296H652.417H722.787C730.812 317.046 701.491 279.344 774.87 266.083Z" fill="#CB2B32"/>
</svg>
