<svg width="183" height="183" viewBox="0 0 183 183" fill="none" xmlns="http://www.w3.org/2000/svg">
<path d="M144.78 114.375C151.644 114.375 155.082 106.166 150.228 101.365C150.228 101.365 150.228 101.365 150.228 101.365L126.367 77.7624C109.93 61.5041 101.712 53.375 91.5 53.375C81.2877 53.375 73.0695 61.5041 56.6331 77.7625L32.7721 101.365C27.9185 106.166 31.356 114.375 38.22 114.375C40.2634 114.375 42.2231 113.572 43.668 112.143L67.529 88.5403C76.0552 80.1065 81.3769 74.8882 85.7475 71.5897C89.6922 68.6126 91.0694 68.6161 91.479 68.6171L91.5 68.6172L91.5209 68.6171C91.9306 68.6161 93.3078 68.6126 97.2525 71.5897C101.623 74.8882 106.945 80.1065 115.471 88.5403L139.332 112.143C139.332 112.143 139.332 112.143 139.332 112.143C140.777 113.572 142.737 114.375 144.78 114.375Z" fill="white"/>
</svg>
