<svg width="183" height="183" viewBox="0 0 183 183" fill="none" xmlns="http://www.w3.org/2000/svg">
<path d="M38.22 68.625C31.356 68.625 27.9185 76.834 32.7721 81.635C32.7721 81.635 32.7721 81.635 32.7721 81.635L56.6332 105.238C73.0696 121.496 81.2878 129.625 91.5 129.625C101.712 129.625 109.931 121.496 126.367 105.238L150.228 81.635C155.082 76.834 151.644 68.625 144.78 68.625C142.737 68.625 140.777 69.4279 139.332 70.8572L115.471 94.4597C106.945 102.894 101.623 108.112 97.2525 111.41C93.3078 114.387 91.9306 114.384 91.521 114.383L91.5 114.383L91.4791 114.383C91.0694 114.384 89.6922 114.387 85.7475 111.41C81.377 108.112 76.0553 102.894 67.5291 94.4597L43.668 70.8572C43.668 70.8572 43.668 70.8572 43.668 70.8572C42.2231 69.4279 40.2634 68.625 38.22 68.625Z" fill="white"/>
</svg>
