<svg width="16" height="16" viewBox="0 0 16 16" fill="none" xmlns="http://www.w3.org/2000/svg">
<path d="M0.390524 13.7237C-0.130175 14.2444 -0.130175 15.0886 0.390524 15.6093C0.911223 16.13 1.75544 16.13 2.27614 15.6093L7.9999 9.88559L13.7239 15.6095C14.2446 16.1302 15.0888 16.1302 15.6095 15.6095C16.1302 15.0888 16.1302 14.2446 15.6095 13.7239L9.88552 8L15.6095 2.27611C16.1302 1.75542 16.1302 0.911211 15.6095 0.390519C15.0888 -0.130173 14.2446 -0.130173 13.7239 0.39052L7.9999 6.1144L2.27614 0.390721C1.75544 -0.129972 0.911225 -0.129971 0.390527 0.39072C-0.130173 0.911413 -0.130172 1.75562 0.390526 2.27632L6.11428 8L0.390524 13.7237Z" fill="white"/>
</svg>
