<svg width="1728" height="1072" viewBox="0 0 1728 1072" fill="none" xmlns="http://www.w3.org/2000/svg">
<line x1="350.345" y1="580.404" x2="865.345" y2="1070.4" stroke="#F48014"/>
<line x1="181.133" y1="881.284" x2="865.133" y2="1070.28" stroke="#F48014"/>
<line x1="14.0766" y1="938.272" x2="865.077" y2="1070.27" stroke="#F48014"/>
<line x1="1.00984" y1="1053.27" x2="865.01" y2="1070.27" stroke="#F48014"/>
<line x1="-5.96279" y1="1005.27" x2="865.037" y2="1070.27" stroke="#F48014"/>
<line x1="158.285" y1="580.355" x2="865.285" y2="1070.36" stroke="#F48014"/>
<line x1="144.341" y1="306.4" x2="487.271" y2="625.475" stroke="#F48014"/>
<line x1="1.2455" y1="596.331" x2="842.246" y2="1070.33" stroke="#F48014"/>
<line x1="404.421" y1="348.497" x2="865.421" y2="1070.5" stroke="#F48014"/>
<line x1="404.446" y1="156.541" x2="865.446" y2="1070.54" stroke="#F48014"/>
<line x1="724.834" y1="0.519352" x2="856.192" y2="1071.89" stroke="#F48014"/>
<line x1="806.619" y1="88.2444" x2="866.88" y2="1070.69" stroke="#F48014"/>
<line x1="1437.37" y1="437.101" x2="865.371" y2="1071.1" stroke="#F48014"/>
<line x1="1734.25" y1="581.202" x2="865.246" y2="1071.2" stroke="#F48014"/>
<line x1="1624.22" y1="693.214" x2="865.223" y2="1071.21" stroke="#F48014"/>
<line x1="1698.21" y1="693.221" x2="865.207" y2="1071.22" stroke="#F48014"/>
<line x1="1734.12" y1="860.252" x2="865.118" y2="1071.25" stroke="#F48014"/>
<line x1="1729.11" y1="882.255" x2="865.107" y2="1071.25" stroke="#F48014"/>
<line x1="1729.1" y1="903.257" x2="865.095" y2="1071.26" stroke="#F48014"/>
<line x1="1734.06" y1="966.263" x2="865.06" y2="1071.26" stroke="#F48014"/>
<line x1="1729" y1="1071.27" x2="865" y2="1071.27" stroke="#F48014"/>
<line x1="1077.49" y1="156.88" x2="996.487" y2="501.88" stroke="#F48014"/>
<line x1="1143.46" y1="156.962" x2="996.46" y2="501.962" stroke="#F48014"/>
<line x1="887.164" y1="27.0199" x2="868.943" y2="1070.85" stroke="#F48014"/>
</svg>
