<svg width="1724" height="1078" viewBox="0 0 1724 1078" fill="none" xmlns="http://www.w3.org/2000/svg">
<path d="M1231.5 368C1266.5 433.5 1158.97 424 1106.5 424C1054.03 424 1029.5 361.176 1029.5 306.5C1029.5 251.824 1126.53 187.5 1179 187.5C1231.47 187.5 1231.5 313.324 1231.5 368Z" fill="black"/>
<path d="M821 593C851.246 652.5 782.5 676.5 726.5 742.5L875 759.5C899.333 711.667 971.5 665.5 948 553C913.5 510 821 436 768 368.5C764 343.333 745.6 294.7 768 253.5C858.5 196 926.3 161.2 971.5 208C1010 247.863 981.5 331 1064 424C1040.03 352.607 1048.38 320 1048.38 276C1106.48 221.6 1159.17 248.333 1167.5 276C1167.5 246 1168.67 247.112 1180 243.918C1204.49 254.955 1224.57 273.572 1237.5 291C1272 337.5 1222 122 1007.5 59C875 -1.99998 744 68.0001 617 196C592.5 220.693 580 305 617 386C693.5 478 772.2 497 821 593Z" fill="#DB4338"/>
<path d="M821.031 592.691C851.242 652.123 782.576 676.095 726.641 742.02L874.968 759C899.273 711.222 971.355 665.108 947.883 552.737C913.423 509.786 821.031 435.871 768.093 368.448C764.097 343.31 745.719 294.733 768.093 253.58C858.487 196.146 926.208 161.386 971.355 208.132C971.355 136.026 735.298 170.097 617.269 196.146C592.797 220.811 580.312 305.021 617.269 385.928C693.68 477.823 772.288 496.801 821.031 592.691Z" fill="black"/>
<path d="M1720.5 974.5C1364.5 865.667 522 644.8 0 632V1077H1720.5V974.5Z" fill="black"/>
<path d="M1515.5 338C1415 268 1223.4 438.6 921 767L1721 974.5V718C1696 718 1710.1 682.1 1538.5 620.5C1473 596.987 1464 517.5 1515.5 338Z" fill="black"/>
<path d="M43.5 866C34.5001 866 77.3 894.611 114.5 1085.01H235.5C165 1026.51 153.5 898.4 43.5 866Z" fill="#E63E34"/>
<path d="M484.039 1080C478.547 1068.94 319.5 734 1 628.5L341.727 661.612C389.164 711.061 484.039 836.41 484.039 942.214C484.039 963.334 490.032 1020.46 514 1080H484.039Z" fill="#E23F36"/>
<path d="M842.5 917.5C824.5 865 713.1 815.4 521.5 687C635.833 731 876.3 833.9 923.5 893.5C943.5 946 884 1014.4 884 1076H824.5C830.5 1038.67 860.5 970 842.5 917.5Z" fill="#E33D3E"/>
<path d="M1108 917.5C1145 867 920.1 854.9 728.5 726.5C834 788.33 1141.8 833.9 1189 893.5C1209 946 1725.5 1014.4 1725.5 1076H1624.5C1630.5 1038.67 1071 968 1108 917.5Z" fill="#E33D3E"/>
<path d="M1342 367.5C1376.5 353.333 1452.6 306.4 1509 316C1519.17 395 1581.2 596.5 1720 686.5V750C1697.33 738.333 1635.6 709.3 1570 686.5C1584 703 1633.6 747.3 1720 792.5V968.5C1667.67 941.833 1500.5 872.5 1250.5 808.5C1316.33 816.333 1478 821.2 1598 778C1541.67 715.5 1411.6 590.5 1342 590.5L1363.5 548C1363.5 548 1344 574 1286 574C1267.17 551.333 1252 478.3 1342 367.5Z" fill="#E53F2F"/>
<circle cx="1559" cy="225" r="74" fill="#D9D9D9"/>
<circle cx="1676" cy="107" r="44" fill="#D9D9D9"/>
<path d="M1207.46 403.586C1204.03 410.379 1205.46 353.572 1186.16 343.845C1166.86 334.118 1147.29 345.231 1150.72 338.438C1154.14 331.645 1171.27 328.182 1190.56 337.909C1209.86 347.636 1210.88 396.793 1207.46 403.586Z" fill="#E23F36"/>
<path d="M1161.74 417.802C1155.16 421.614 1187.44 374.851 1176.62 356.147C1165.79 337.443 1143.33 336.034 1149.91 332.223C1156.5 328.411 1172.72 334.887 1183.55 353.591C1194.38 372.294 1168.33 413.991 1161.74 417.802Z" fill="#E23F36"/>
<path d="M1111.77 408.762C1104.19 408.11 1157.45 388.309 1159.3 366.776C1161.15 345.243 1143.56 331.211 1151.14 331.863C1158.72 332.515 1168.3 347.125 1166.45 368.658C1164.6 390.191 1119.35 409.414 1111.77 408.762Z" fill="#E23F36"/>
<path d="M1227.74 374.977C1227.06 382.554 1207.45 329.222 1185.92 327.295C1164.39 325.367 1150.3 342.911 1150.98 335.334C1151.66 327.757 1166.3 318.225 1187.83 320.153C1209.35 322.08 1228.42 367.4 1227.74 374.977Z" fill="#E23F36"/>
<path d="M1223.59 324.905C1225.64 329.642 1192.78 305.874 1175.86 313.191C1158.93 320.508 1154.21 336.397 1152.16 331.659C1150.11 326.921 1157.96 315.544 1174.88 308.227C1191.81 300.91 1221.54 320.167 1223.59 324.905Z" fill="#E23F36"/>
<path d="M1205.39 292.251C1209.78 294.971 1169.24 294.218 1159.52 309.888C1149.81 325.557 1155 341.297 1150.62 338.577C1146.23 335.858 1146.17 322.038 1155.89 306.368C1165.6 290.698 1201.01 289.531 1205.39 292.251Z" fill="#E23F36"/>
<ellipse cx="1148" cy="332.5" rx="18" ry="10.5" fill="black"/>
<path d="M411 421H413.438" stroke="white" stroke-width="8" stroke-linecap="round"/>
<path d="M349.084 194.067C348.99 194.816 348.82 194.605 348.271 194.88" stroke="white" stroke-width="8" stroke-linecap="round"/>
<path d="M309.256 146.925H310.882" stroke="white" stroke-width="8" stroke-linecap="round"/>
<path d="M1339.33 235.142H1341.72" stroke="white" stroke-width="3" stroke-linecap="round"/>
<path d="M1605.04 383.556L1607.43 381.162" stroke="white" stroke-width="3" stroke-linecap="round"/>
<path d="M381.944 414.944C381.72 413.153 381.313 413.656 380 413" stroke="white" stroke-width="3" stroke-linecap="round"/>
<path d="M65.0038 51.6078C64.7162 49.3075 63.0523 49.6643 61.1167 49.6643" stroke="white" stroke-width="3" stroke-linecap="round"/>
<path d="M541.944 530.162H545.332" stroke="white" stroke-width="3" stroke-linecap="round"/>
<path d="M887.438 249.025C890.558 249.415 889.681 250.124 890.825 252.412" stroke="white" stroke-width="3" stroke-linecap="round"/>
<path d="M1297.29 1.75989V5.14708" stroke="white" stroke-width="3" stroke-linecap="round"/>
</svg>
