<svg width="1728" height="694" viewBox="0 0 1728 694" fill="none" xmlns="http://www.w3.org/2000/svg">
<path d="M227 251.132L1084.5 2.08409L1732 305.839V694H0L227 251.132Z" fill="#CD272B"/>
<path d="M1248.18 603.544C1236.35 613.552 1223 694 983.645 694H-1L-24 323.033L1079.5 0C1092.67 2.15371 1121 58.3544 1021 140.676C883.5 225.602 933.886 221.769 617 323.033C579.5 335.017 533.698 345.412 548.5 407.438C569.503 450.006 695.702 402.337 1142.17 457.978C1183.67 475.461 1262.99 529.051 1248.18 603.544Z" fill="#F0623A"/>
<path d="M196.576 443.91C182.738 448.152 109.042 462.445 3 516.392V694H1269C1175.3 674.358 850.335 555.676 196.576 443.91Z" fill="#A11F37"/>
<path d="M263 574.739C327.5 544.717 467 513.869 202.5 443.91C169.333 455.753 130 451.897 -1.5 513.869V694H150.5C167.833 684.819 104.5 603.384 263 574.739Z" fill="#CB2B32"/>
</svg>
